<svg xmlns="http://www.w3.org/2000/svg" viewBox="0 0 153.54 16.06"><defs><style>.cls-1{fill:#bd592a;}.cls-2{fill:#bd592b;}.cls-3{fill:#a93926;}.cls-4{fill:#a93925;}.cls-5{fill:#bf592a;}.cls-6{fill:#7e2a1f;}</style></defs><title>Asset 1</title><g id="Layer_2" data-name="Layer 2"><g id="Layer_1-2" data-name="Layer 1"><polygon class="cls-1" points="3.02 2.16 1.94 4.43 2.54 4.32 2.54 11.39 3.5 11.51 3.5 4.32 4.1 4.55 3.02 2.16"/><path class="cls-2" d="M2.54,12.59l1,.24v.48a.35.35,0,0,1-.36.36c-.48,0-.48-.12-.6-.36Z"/><path class="cls-3" d="M.74,11.39S0,11.15,0,11.75s.36.48.6.48S6.25,13.3,6.25,13.3l6.24,1.08-.24.6,2.28-.72-1.92-1.44v.6Z"/><polygon class="cls-3" points="4.22 9.95 6.02 9.71 6.02 11.63 4.22 11.27 4.22 9.95"/><polygon class="cls-3" points="6.62 8.75 8.65 8.27 8.65 11.99 6.62 11.63 6.62 8.75"/><polygon class="cls-3" points="9.25 7.31 11.29 6.95 11.29 12.47 9.25 12.11 9.25 7.31"/><path class="cls-3" d="M11.89,5.87l2.28-.36v7.55l-1.32-1s-.6-.36-1,.48Z"/><path class="cls-4" d="M16.45,2.76,19,3.48,16.81,5l.12-.72L5.3,6.35s-1,.12-1-.36.12-.48.6-.6S16.81,3.48,16.81,3.48Z"/><path class="cls-5" d="M15.37,0l-1.2,2.28.72-.12L15,15.46s0,.6.48.6c0,0,.36,0,.36-.6V2l.72.24Z"/><path class="cls-6" d="M26.76,14.62H22.21V1.68h4.56Zm6.36,0H27.84V1.8l.72-.12a4.57,4.57,0,0,1,2.88.84A3.07,3.07,0,0,1,32.4,5c0,2.16-1.2,3.12-3.6,3.12h-.72Z"/><path class="cls-6" d="M40.68,13.18a4.49,4.49,0,0,1-3.48,1.56,4.44,4.44,0,0,1-3.36-1.2,5.24,5.24,0,0,1-1.08-3.48,5.21,5.21,0,0,1,1-3.48A3.65,3.65,0,0,1,36.6,5.27v8.39h.72a3.79,3.79,0,0,0,3.36-2.28Zm.12-3.36H37.56V5.27A2.71,2.71,0,0,1,40,6.35,5.73,5.73,0,0,1,40.8,9.83Z"/><path class="cls-6" d="M48.83,12.59A1.71,1.71,0,0,1,48.11,14a3.05,3.05,0,0,1-1.92.6h-.48c.24-.12.36-.24.36-.48a.62.62,0,0,0-.24-.48c-.12-.12-.24-.24-.24-.36L42.12,9.59a2.51,2.51,0,0,1-.48-.72,2.35,2.35,0,0,1-.12-1,2.44,2.44,0,0,1,.72-1.8,2,2,0,0,1,1.68-.72H44c-.12.24-.24.36-.24.48s0,.36.12.48l.36.36,3.6,3.84A3,3,0,0,1,48.83,12.59Zm-3.48,2H41.64V10.55Zm2.76-5.28-3.72-4h3.72Z"/><path class="cls-6" d="M57.47,13.18A4.49,4.49,0,0,1,54,14.74a4.44,4.44,0,0,1-3.36-1.2,5.24,5.24,0,0,1-1.08-3.48,5.21,5.21,0,0,1,1-3.48,3.65,3.65,0,0,1,2.88-1.32v8.39h.72a3.79,3.79,0,0,0,3.36-2.28Zm.12-3.36H54.35V5.27a2.71,2.71,0,0,1,2.4,1.08A5.73,5.73,0,0,1,57.59,9.83Z"/><path class="cls-6" d="M61.79,14.62h-.48q-3.24,0-3.24-2.52c0-1.8,1.08-2.64,3.24-2.64h.48Zm.36-7.31a1.54,1.54,0,0,1-.48,1.2,1.75,1.75,0,0,1-2.64,0,2.13,2.13,0,0,1-.48-1.2A2.18,2.18,0,0,1,59,6a1.75,1.75,0,0,1,2.64,0A1.64,1.64,0,0,1,62.14,7.31Zm4.2,7.31H62.86V8a3.92,3.92,0,0,0-.24-1.44,1.91,1.91,0,0,0-.84-1.08,10,10,0,0,1,1.56-.24c1.92,0,3,1.2,3,3.48Z"/><path class="cls-6" d="M71,14.62H67.54V5.39H71Zm4-7.55a1.39,1.39,0,0,1-.48,1.2,1.67,1.67,0,0,1-1.2.6A1.93,1.93,0,0,1,72,8.27a1.54,1.54,0,0,1-.48-1.2A1.39,1.39,0,0,1,72,5.87a1.93,1.93,0,0,1,1.32-.6,2.14,2.14,0,0,1,1.2.48A1.8,1.8,0,0,1,75,7.07Z"/><path class="cls-6" d="M83.37,13.18a5.23,5.23,0,0,1-1.8,1.2,5.17,5.17,0,0,1-2,.36,4,4,0,0,1-3.24-1.2,4.55,4.55,0,0,1-1.2-3.48,4.91,4.91,0,0,1,1.08-3.36A4,4,0,0,1,79.3,5.39v8.27h.48a4.12,4.12,0,0,0,3.6-2.28Zm0-4.08L79.66,5.39h3.72Z"/><path class="cls-6" d="M87.69,14.62H84.21V1.8h3.48Zm4.56,0h-3.6V5.39h.48a3.52,3.52,0,0,1,2.52.72,4.47,4.47,0,0,1,.6,2.64Z"/><path class="cls-6" d="M102.2,14.62H97.89L100,6.35Zm5.28,0h-4.2L100.64,4.2l.72-2.4h2.88Zm5.4,0h-4.2L106,4.2l.72-2.4h2.88Z"/><path class="cls-6" d="M120.91,13.18a4.92,4.92,0,0,1-3.6,1.56,4,4,0,0,1-3.24-1.2,4.73,4.73,0,0,1-1.2-3.48A5.24,5.24,0,0,1,114,6.59a3.48,3.48,0,0,1,2.88-1.32v8.39h.6c1.44,0,2.52-.72,3.48-2.28Zm0-3.36h-3.24V5.27a2.8,2.8,0,0,1,2.52,1.08A6.83,6.83,0,0,1,120.91,9.83Z"/><path class="cls-6" d="M125.35,14.62h-3.6V5.39h3.6Zm4.44,0h-3.48V5.39h.36q2,0,2.52.72c.48.48.6,1.32.6,2.64Z"/><polygon class="cls-6" points="136.03 6.71 134.83 6.71 134.83 14.62 131.35 14.62 131.35 6.71 130.03 6.71 134.83 1.8 134.83 5.39 136.03 5.39 136.03 6.71"/><path class="cls-6" d="M140.34,14.74a4.22,4.22,0,0,1-3-1.44,4.55,4.55,0,0,1-1-3.24,4.87,4.87,0,0,1,1-3.36,4.22,4.22,0,0,1,3-1.44Zm4.92-4.67a4.55,4.55,0,0,1-1,3.24,4.22,4.22,0,0,1-3,1.44V5.27a4.22,4.22,0,0,1,3,1.44A4.87,4.87,0,0,1,145.26,10.07Z"/><path class="cls-6" d="M149.58,14.62H146.1V5.39h3.48Zm4-7.55a1.39,1.39,0,0,1-.48,1.2,1.93,1.93,0,0,1-1.32.6,1.67,1.67,0,0,1-1.2-.6,1.67,1.67,0,0,1-.6-1.2,1.48,1.48,0,0,1,.6-1.2,1.67,1.67,0,0,1,1.2-.6,2.52,2.52,0,0,1,1.32.48A1.81,1.81,0,0,1,153.54,7.07Z"/></g></g></svg>