<svg xmlns="http://www.w3.org/2000/svg" viewBox="0 0 685.667 71.696">
  <defs>
    <style>
      .cls-1 {
        fill: #fff;
      }
    </style>
  </defs>
  <path id="Union_1" data-name="Union 1" class="cls-1" d="M66.967,69.02l-.4-48.306-42.9,7.636s-4.464.534-4.464-1.607.534-2.146,2.676-2.68c1.591-.4,30.045-4.891,44.659-7.189l-.06-7.231-3.214.534L68.618,0,73.93,10,70.715,8.928v7.289l4.331-.679-1.607-3.214,11.383,3.214-9.776,6.786.534-3.214-4.866.866V69.02c0,2.676-1.607,2.676-1.607,2.676C66.967,71.7,66.967,69.02,66.967,69.02ZM55.761,64.2,27.9,59.377S3.749,54.6,2.68,54.6,0,55.134,0,52.458s3.3-1.607,3.3-1.607l52.992,9.06v-2.68l8.57,6.429L54.688,66.874Zm453.486-3.753a21.113,21.113,0,0,1-5.356-15.533,23.4,23.4,0,0,1,5.046-15.493,15.521,15.521,0,0,1,12.857-5.89V60.984h2.676c6.429,0,11.25-3.214,15.537-10.181l-.225,8.036a21.954,21.954,0,0,1-16.072,6.967q-.819.075-1.635.075A17.862,17.862,0,0,1,509.247,60.446Zm-168.483,0a20.308,20.308,0,0,1-5.356-15.533,21.918,21.918,0,0,1,4.821-15,17.847,17.847,0,0,1,13.794-5.846V60.984h2.142A18.393,18.393,0,0,0,372.236,50.8l-.044,8.036a23,23,0,0,1-16.964,6.967q-.819.075-1.635.075A17.854,17.854,0,0,1,340.763,60.446Zm-114.687,0a23.361,23.361,0,0,1-4.821-15.533,23.257,23.257,0,0,1,4.464-15.537,16.307,16.307,0,0,1,12.857-5.894V60.94h3.214a16.926,16.926,0,0,0,15-10.181l-.221,8.08a20.047,20.047,0,0,1-15.493,6.967q-.7.049-1.394.049A19.82,19.82,0,0,1,226.076,60.446Zm-75,0a23.383,23.383,0,0,1-4.821-15.533,23.257,23.257,0,0,1,4.464-15.537A16.3,16.3,0,0,1,163.4,23.529V60.984h3.214a16.919,16.919,0,0,0,15-10.181v8.036a20.047,20.047,0,0,1-15.537,6.967q-.7.049-1.394.049A19.82,19.82,0,0,1,151.074,60.446ZM630.636,23.529a18.826,18.826,0,0,1,13.392,6.429,21.734,21.734,0,0,1,4.464,15,20.327,20.327,0,0,1-4.464,14.465,18.841,18.841,0,0,1-13.392,6.429Zm-17.5,35.848a20.327,20.327,0,0,1-4.464-14.465,21.75,21.75,0,0,1,4.464-15,18.857,18.857,0,0,1,13.392-6.429V65.805A18.842,18.842,0,0,1,613.134,59.377Zm39.106,5.89v-41.2h15.537v41.2Zm-65.85,0V29.958H580.5L601.928,8.036V24.063h5.356v5.894h-5.356V65.267Zm-22.5,0v-41.2H565.5q8.932,0,11.25,3.214c2.146,2.142,2.68,5.894,2.68,11.785v26.2Zm-20.355,0v-41.2h16.072v41.2Zm-58.348,0L473.222,18.752l3.214-10.716h12.857l14.641,57.231Zm-24.107,0L449.291,18.752l3.214-10.716h12.857l14.464,57.231Zm-24.063,0,9.418-36.917,9.824,36.917Zm-41.252,0v-41.2h2.142a15.706,15.706,0,0,1,11.25,3.214,19.965,19.965,0,0,1,2.68,11.785v26.2Zm-19.82,0V8.036h15.533V65.267Zm-74.424,0v-41.2h15.449v41.2Zm-20.893,0V35.715a17.451,17.451,0,0,0-1.069-6.429,8.514,8.514,0,0,0-3.753-4.822,44.369,44.369,0,0,1,6.967-1.073c8.57,0,13.392,5.36,13.392,15.537l.044,26.337Zm-6.919,0q-14.464,0-14.464-11.25c0-8.036,4.822-11.785,14.464-11.785h2.146V65.267Zm-149.422,0V8.036L127.5,7.5a20.4,20.4,0,0,1,12.857,3.749,13.709,13.709,0,0,1,4.287,11.073c0,9.643-5.356,13.926-16.072,13.926h-3.214l22.5,29.017Zm-25.132,0V7.5h20.355l-.044,57.766Zm107.053-.088h-2.142c1.073-.534,1.607-1.069,1.607-2.142A2.764,2.764,0,0,0,204.6,60.9c-.534-.538-1.069-1.073-1.069-1.607L188.038,42.815A11.211,11.211,0,0,1,185.9,39.6a10.486,10.486,0,0,1-.538-4.468,10.906,10.906,0,0,1,3.214-8.036,8.941,8.941,0,0,1,7.5-3.214h.358c-.534,1.073-1.073,1.607-1.073,2.146a3.2,3.2,0,0,0,.538,2.142l1.607,1.607,16.072,17.144A13.408,13.408,0,0,1,218,56.207a7.652,7.652,0,0,1-3.214,6.3,13.618,13.618,0,0,1-8.113,2.684C206.515,65.187,206.361,65.184,206.207,65.179ZM185.9,65.134V47.1l16.562,18.036ZM14.2,61.028c-2.142,0-2.142-.534-2.676-1.607l-.181-3.214L15.8,57.279v2.142a1.559,1.559,0,0,1-1.563,1.608ZM57.368,53.84s-2.68-1.607-4.464,2.142L53.081,26.2,63.258,24.6V58.3ZM41.3,54.065V32.634l9.1-1.607V55.672ZM29.556,51.92V39.062l9.06-2.142V53.527ZM18.84,50.312v-5.89l8.036-1.073v8.57Zm-7.5.538V19.286l-2.676.49L13.484,9.643l4.821,10.672-2.68-1.029v32.1ZM539.783,43.84H525.318V23.529a12.492,12.492,0,0,1,11.25,4.822,30.408,30.408,0,0,1,3.214,15.533Zm-282.68,0H242.638V23.529a12.1,12.1,0,0,1,10.716,4.822A25.572,25.572,0,0,1,257.1,43.884Zm-74.958,0H167.68V23.529a12.089,12.089,0,0,1,10.893,4.822,25.567,25.567,0,0,1,3.572,15.533Zm16.027-20.134h16.61V41.561Zm65.359,14.288a9.5,9.5,0,0,1-2.142-5.36,9.719,9.719,0,0,1,2.009-5.846,7.81,7.81,0,0,1,11.785,0,7.308,7.308,0,0,1,2.23,5.846h.048a6.886,6.886,0,0,1-2.146,5.36,7.817,7.817,0,0,1-11.785,0Zm92.1-13.93h16.606l-.044,16.562ZM672.241,36.921a7.468,7.468,0,0,1-2.68-5.356,6.625,6.625,0,0,1,2.68-5.36,7.449,7.449,0,0,1,5.356-2.676,11.242,11.242,0,0,1,5.894,2.142,8.077,8.077,0,0,1,1.965,5.894h.177a6.2,6.2,0,0,1-2.141,5.356A8.645,8.645,0,0,1,677.6,39.6,7.468,7.468,0,0,1,672.241,36.921Zm-350.808,0a6.86,6.86,0,0,1-2.142-5.356,6.2,6.2,0,0,1,2.142-5.36,8.623,8.623,0,0,1,5.894-2.676,9.554,9.554,0,0,1,5.356,2.142,8.022,8.022,0,0,1,2.142,5.894,6.2,6.2,0,0,1-2.142,5.356,7.468,7.468,0,0,1-5.356,2.68A8.645,8.645,0,0,1,321.433,36.921Z"/>
</svg>
